<svg width="53" height="54" viewBox="0 0 53 54" fill="none" xmlns="http://www.w3.org/2000/svg">
<path d="M14.1 32.3H18.552V50H16.08V34.4L11.988 50H8.412L4.284 34.376V50H1.8V32.3H6.252L10.164 48.08L14.1 32.3ZM22.1072 50V32.3H28.5872C32.0352 32.3 33.7592 33.884 33.7592 37.052C33.7592 37.98 33.5792 38.772 33.2192 39.428C32.8672 40.084 32.4392 40.592 31.9352 40.952C31.4392 41.304 30.9712 41.504 30.5312 41.552C30.9792 41.584 31.4152 41.704 31.8392 41.912C32.2632 42.112 32.6152 42.432 32.8952 42.872C33.1752 43.304 33.3152 43.888 33.3152 44.624V48.428C33.3152 49.228 33.4192 49.752 33.6272 50H30.9992C30.9272 49.88 30.8632 49.68 30.8072 49.4C30.7512 49.12 30.7232 48.796 30.7232 48.428V44.936C30.7232 43.416 29.8392 42.656 28.0712 42.656H24.6512V50H22.1072ZM27.9752 34.46H24.6512V40.496H28.0952C28.9272 40.496 29.6312 40.204 30.2072 39.62C30.7912 39.028 31.0832 38.244 31.0832 37.268C31.0832 36.292 30.8152 35.58 30.2792 35.132C29.7432 34.684 28.9752 34.46 27.9752 34.46ZM36.8522 50V32.3H43.3322C46.7802 32.3 48.5042 33.884 48.5042 37.052C48.5042 37.98 48.3242 38.772 47.9642 39.428C47.6122 40.084 47.1842 40.592 46.6802 40.952C46.1842 41.304 45.7162 41.504 45.2762 41.552C45.7242 41.584 46.1602 41.704 46.5842 41.912C47.0082 42.112 47.3602 42.432 47.6402 42.872C47.9202 43.304 48.0602 43.888 48.0602 44.624V48.428C48.0602 49.228 48.1642 49.752 48.3722 50H45.7442C45.6722 49.88 45.6082 49.68 45.5522 49.4C45.4962 49.12 45.4682 48.796 45.4682 48.428V44.936C45.4682 43.416 44.5842 42.656 42.8162 42.656H39.3962V50H36.8522ZM42.7202 34.46H39.3962V40.496H42.8402C43.6722 40.496 44.3762 40.204 44.9522 39.62C45.5362 39.028 45.8282 38.244 45.8282 37.268C45.8282 36.292 45.5602 35.58 45.0242 35.132C44.4882 34.684 43.7202 34.46 42.7202 34.46Z" fill="#3E4E6B"/>
<path d="M14.1 32.3V31.3H13.3188L13.1297 32.058L14.1 32.3ZM18.552 32.3H19.552V31.3H18.552V32.3ZM18.552 50V51H19.552V50H18.552ZM16.08 50H15.08V51H16.08V50ZM16.08 34.4H17.08L15.1127 34.1463L16.08 34.4ZM11.988 50V51H12.7595L12.9553 50.2537L11.988 50ZM8.412 50L7.44518 50.2554L7.64189 51H8.412V50ZM4.284 34.376L5.25082 34.1206L3.284 34.376H4.284ZM4.284 50V51H5.284V50H4.284ZM1.8 50H0.8V51H1.8V50ZM1.8 32.3V31.3H0.8V32.3H1.8ZM6.252 32.3L7.22262 32.0594L7.03436 31.3H6.252V32.3ZM10.164 48.08L9.19338 48.3206L11.1343 48.322L10.164 48.08ZM14.1 33.3H18.552V31.3H14.1V33.3ZM17.552 32.3V50H19.552V32.3H17.552ZM18.552 49H16.08V51H18.552V49ZM17.08 50V34.4H15.08V50H17.08ZM15.1127 34.1463L11.0207 49.7463L12.9553 50.2537L17.0473 34.6537L15.1127 34.1463ZM11.988 49H8.412V51H11.988V49ZM9.37882 49.7446L5.25082 34.1206L3.31718 34.6314L7.44518 50.2554L9.37882 49.7446ZM3.284 34.376V50H5.284V34.376H3.284ZM4.284 49H1.8V51H4.284V49ZM2.8 50V32.3H0.8V50H2.8ZM1.8 33.3H6.252V31.3H1.8V33.3ZM5.28138 32.5406L9.19338 48.3206L11.1346 47.8394L7.22262 32.0594L5.28138 32.5406ZM11.1343 48.322L15.0703 32.542L13.1297 32.058L9.19373 47.838L11.1343 48.322ZM22.1072 50H21.1072V51H22.1072V50ZM22.1072 32.3V31.3H21.1072V32.3H22.1072ZM33.2192 39.428L32.3425 38.9469L32.338 38.9552L33.2192 39.428ZM31.9352 40.952L32.5139 41.7675L32.5164 41.7657L31.9352 40.952ZM30.5312 41.552L30.4227 40.5579L30.4599 42.5495L30.5312 41.552ZM31.8392 41.912L31.3988 42.8098L31.4056 42.8132L31.4126 42.8164L31.8392 41.912ZM32.8952 42.872L32.0515 43.4089L32.056 43.4159L32.8952 42.872ZM33.6272 50V51H35.7711L34.3934 49.3574L33.6272 50ZM30.9992 50L30.1417 50.5145L30.433 51H30.9992V50ZM30.8072 49.4L29.8266 49.5961H29.8266L30.8072 49.4ZM24.6512 42.656V41.656H23.6512V42.656H24.6512ZM24.6512 50V51H25.6512V50H24.6512ZM24.6512 34.46V33.46H23.6512V34.46H24.6512ZM24.6512 40.496H23.6512V41.496H24.6512V40.496ZM30.2072 39.62L29.4953 38.9177L29.4952 38.9178L30.2072 39.62ZM30.2792 35.132L30.9205 34.3647H30.9205L30.2792 35.132ZM23.1072 50V32.3H21.1072V50H23.1072ZM22.1072 33.3H28.5872V31.3H22.1072V33.3ZM28.5872 33.3C30.1771 33.3 31.1829 33.667 31.7896 34.2244C32.3803 34.767 32.7592 35.6449 32.7592 37.052H34.7592C34.7592 35.2911 34.2761 33.7929 33.1428 32.7516C32.0254 31.725 30.4453 31.3 28.5872 31.3V33.3ZM32.7592 37.052C32.7592 37.8517 32.6044 38.4697 32.3425 38.9469L34.0959 39.9091C34.554 39.0743 34.7592 38.1083 34.7592 37.052H32.7592ZM32.338 38.9552C32.0441 39.503 31.7104 39.8836 31.354 40.1383L32.5164 41.7657C33.1679 41.3004 33.6903 40.665 34.1003 39.9008L32.338 38.9552ZM31.3564 40.1365C30.9498 40.4251 30.6417 40.534 30.4227 40.5579L30.6396 42.5461C31.3007 42.474 31.9285 42.1829 32.5139 41.7675L31.3564 40.1365ZM30.4599 42.5495C30.7731 42.5718 31.0842 42.6555 31.3988 42.8098L32.2796 41.0142C31.7462 40.7525 31.1853 40.5962 30.6024 40.5545L30.4599 42.5495ZM31.4126 42.8164C31.6468 42.9269 31.8612 43.1098 32.0515 43.4089L33.7388 42.3351C33.3692 41.7542 32.8796 41.2971 32.2658 41.0076L31.4126 42.8164ZM32.056 43.4159C32.195 43.6304 32.3152 44.002 32.3152 44.624H34.3152C34.3152 43.774 34.1553 42.9776 33.7343 42.3281L32.056 43.4159ZM32.3152 44.624V48.428H34.3152V44.624H32.3152ZM32.3152 48.428C32.3152 48.8645 32.343 49.2664 32.4123 49.6157C32.4782 49.9475 32.6002 50.3316 32.861 50.6426L34.3934 49.3574C34.4462 49.4204 34.4122 49.4185 34.3741 49.2263C34.3394 49.0516 34.3152 48.7915 34.3152 48.428H32.3152ZM33.6272 49H30.9992V51H33.6272V49ZM31.8567 49.4855C31.8747 49.5155 31.8686 49.5145 31.8496 49.4552C31.8322 49.401 31.8108 49.3192 31.7878 49.2039L29.8266 49.5961C29.8867 49.8966 29.9766 50.2393 30.1417 50.5145L31.8567 49.4855ZM31.7878 49.2039C31.7478 49.0038 31.7232 48.7479 31.7232 48.428H29.7232C29.7232 48.8441 29.7546 49.2362 29.8266 49.5961L31.7878 49.2039ZM31.7232 48.428V44.936H29.7232V48.428H31.7232ZM31.7232 44.936C31.7232 43.9791 31.4379 43.0917 30.7121 42.4677C30.0153 41.8686 29.0754 41.656 28.0712 41.656V43.656C28.8349 43.656 29.2211 43.8234 29.4083 43.9843C29.5665 44.1203 29.7232 44.3729 29.7232 44.936H31.7232ZM28.0712 41.656H24.6512V43.656H28.0712V41.656ZM23.6512 42.656V50H25.6512V42.656H23.6512ZM24.6512 49H22.1072V51H24.6512V49ZM27.9752 33.46H24.6512V35.46H27.9752V33.46ZM23.6512 34.46V40.496H25.6512V34.46H23.6512ZM24.6512 41.496H28.0952V39.496H24.6512V41.496ZM28.0952 41.496C29.1905 41.496 30.1522 41.0998 30.9192 40.3222L29.4952 38.9178C29.1101 39.3082 28.6639 39.496 28.0952 39.496V41.496ZM30.9191 40.3223C31.7195 39.5109 32.0832 38.4578 32.0832 37.268H30.0832C30.0832 38.0302 29.8629 38.5451 29.4953 38.9177L30.9191 40.3223ZM32.0832 37.268C32.0832 36.1188 31.7638 35.0696 30.9205 34.3647L29.6379 35.8993C29.8666 36.0904 30.0832 36.4652 30.0832 37.268H32.0832ZM30.9205 34.3647C30.1409 33.7131 29.1104 33.46 27.9752 33.46V35.46C28.84 35.46 29.3455 35.6549 29.6379 35.8993L30.9205 34.3647ZM36.8522 50H35.8522V51H36.8522V50ZM36.8522 32.3V31.3H35.8522V32.3H36.8522ZM47.9642 39.428L47.0875 38.9469L47.083 38.9552L47.9642 39.428ZM46.6802 40.952L47.2589 41.7675L47.2614 41.7657L46.6802 40.952ZM45.2762 41.552L45.1677 40.5579L45.2049 42.5495L45.2762 41.552ZM46.5842 41.912L46.1438 42.8098L46.1506 42.8132L46.1576 42.8164L46.5842 41.912ZM47.6402 42.872L46.7965 43.4089L46.801 43.4159L47.6402 42.872ZM48.3722 50V51H50.5161L49.1384 49.3574L48.3722 50ZM45.7442 50L44.8867 50.5145L45.178 51H45.7442V50ZM45.5522 49.4L44.5716 49.5961L45.5522 49.4ZM39.3962 42.656V41.656H38.3962V42.656H39.3962ZM39.3962 50V51H40.3962V50H39.3962ZM39.3962 34.46V33.46H38.3962V34.46H39.3962ZM39.3962 40.496H38.3962V41.496H39.3962V40.496ZM44.9522 39.62L44.2403 38.9177L44.2402 38.9178L44.9522 39.62ZM45.0242 35.132L45.6655 34.3647L45.0242 35.132ZM37.8522 50V32.3H35.8522V50H37.8522ZM36.8522 33.3H43.3322V31.3H36.8522V33.3ZM43.3322 33.3C44.9221 33.3 45.9279 33.667 46.5346 34.2244C47.1253 34.767 47.5042 35.6449 47.5042 37.052H49.5042C49.5042 35.2911 49.0211 33.7929 47.8878 32.7516C46.7704 31.725 45.1903 31.3 43.3322 31.3V33.3ZM47.5042 37.052C47.5042 37.8517 47.3494 38.4697 47.0875 38.9469L48.8409 39.9091C49.299 39.0743 49.5042 38.1083 49.5042 37.052H47.5042ZM47.083 38.9552C46.7891 39.503 46.4554 39.8836 46.099 40.1383L47.2614 41.7657C47.9129 41.3004 48.4353 40.665 48.8454 39.9008L47.083 38.9552ZM46.1014 40.1365C45.6948 40.4251 45.3867 40.534 45.1677 40.5579L45.3846 42.5461C46.0457 42.474 46.6735 42.1829 47.2589 41.7675L46.1014 40.1365ZM45.2049 42.5495C45.5181 42.5718 45.8292 42.6555 46.1438 42.8098L47.0246 41.0142C46.4911 40.7525 45.9303 40.5962 45.3474 40.5545L45.2049 42.5495ZM46.1576 42.8164C46.3918 42.9269 46.6062 43.1098 46.7965 43.4089L48.4839 42.3351C48.1142 41.7542 47.6246 41.2971 47.0108 41.0076L46.1576 42.8164ZM46.801 43.4159C46.94 43.6304 47.0602 44.002 47.0602 44.624H49.0602C49.0602 43.774 48.9003 42.9776 48.4793 42.3281L46.801 43.4159ZM47.0602 44.624V48.428H49.0602V44.624H47.0602ZM47.0602 48.428C47.0602 48.8645 47.088 49.2664 47.1573 49.6157C47.2232 49.9475 47.3452 50.3316 47.606 50.6426L49.1384 49.3574C49.1912 49.4204 49.1572 49.4185 49.1191 49.2263C49.0844 49.0516 49.0602 48.7915 49.0602 48.428H47.0602ZM48.3722 49H45.7442V51H48.3722V49ZM46.6017 49.4855C46.6197 49.5155 46.6136 49.5145 46.5946 49.4552C46.5772 49.401 46.5558 49.3192 46.5328 49.2039L44.5716 49.5961C44.6317 49.8966 44.7216 50.2393 44.8867 50.5145L46.6017 49.4855ZM46.5328 49.2039C46.4928 49.0038 46.4682 48.7479 46.4682 48.428H44.4682C44.4682 48.8441 44.4996 49.2362 44.5716 49.5961L46.5328 49.2039ZM46.4682 48.428V44.936H44.4682V48.428H46.4682ZM46.4682 44.936C46.4682 43.9791 46.1829 43.0917 45.4571 42.4677C44.7603 41.8686 43.8204 41.656 42.8162 41.656V43.656C43.5799 43.656 43.9661 43.8234 44.1533 43.9843C44.3115 44.1203 44.4682 44.3729 44.4682 44.936H46.4682ZM42.8162 41.656H39.3962V43.656H42.8162V41.656ZM38.3962 42.656V50H40.3962V42.656H38.3962ZM39.3962 49H36.8522V51H39.3962V49ZM42.7202 33.46H39.3962V35.46H42.7202V33.46ZM38.3962 34.46V40.496H40.3962V34.46H38.3962ZM39.3962 41.496H42.8402V39.496H39.3962V41.496ZM42.8402 41.496C43.9355 41.496 44.8972 41.0998 45.6642 40.3222L44.2402 38.9178C43.8551 39.3082 43.4089 39.496 42.8402 39.496V41.496ZM45.6641 40.3223C46.4645 39.5109 46.8282 38.4578 46.8282 37.268H44.8282C44.8282 38.0302 44.6079 38.5451 44.2403 38.9177L45.6641 40.3223ZM46.8282 37.268C46.8282 36.1188 46.5088 35.0696 45.6655 34.3647L44.3829 35.8993C44.6116 36.0904 44.8282 36.4652 44.8282 37.268H46.8282ZM45.6655 34.3647C44.8859 33.7131 43.8554 33.46 42.7202 33.46V35.46C43.585 35.46 44.0905 35.6549 44.3829 35.8993L45.6655 34.3647Z" fill="black" fill-opacity="0.05"/>
<path d="M37.375 13.5H29.25C28.819 13.5 28.4057 13.658 28.101 13.9393C27.7962 14.2206 27.625 14.6022 27.625 15V28.5C27.625 28.8978 27.7962 29.2794 28.101 29.5607C28.4057 29.842 28.819 30 29.25 30H37.375C37.806 30 38.2193 29.842 38.524 29.5607C38.8288 29.2794 39 28.8978 39 28.5V15C39 14.6022 38.8288 14.2206 38.524 13.9393C38.2193 13.658 37.806 13.5 37.375 13.5ZM37.375 27H29.25V16.5H37.375V27ZM32.5 0H3.25C1.44625 0 0 1.335 0 3V21C0 21.7956 0.34241 22.5587 0.951903 23.1213C1.5614 23.6839 2.38805 24 3.25 24H14.625V27H11.375V30H24.375V27H21.125V24H24.375V21H3.25V3H32.5V10.5H35.75V3C35.75 2.20435 35.4076 1.44129 34.7981 0.87868C34.1886 0.31607 33.362 0 32.5 0Z" fill="#3467CA" style="mix-blend-mode:darken"/>
<path d="M37.375 27.5H37.875V27V16.5V16H37.375H29.25H28.75V16.5V27V27.5H29.25H37.375ZM38.1849 14.3067L38.524 13.9393L38.1849 14.3067C38.392 14.4979 38.5 14.7483 38.5 15V28.5C38.5 28.7517 38.392 29.0021 38.1849 29.1933C37.9764 29.3857 37.6857 29.5 37.375 29.5H29.25C28.9393 29.5 28.6486 29.3857 28.4401 29.1933C28.233 29.0021 28.125 28.7517 28.125 28.5V15C28.125 14.7483 28.233 14.4979 28.4401 14.3067C28.6486 14.1143 28.9393 14 29.25 14H37.375C37.6857 14 37.9764 14.1143 38.1849 14.3067ZM15.125 24V23.5H14.625H3.25C2.50831 23.5 1.80426 23.2277 1.29104 22.7539C0.779169 22.2814 0.5 21.6495 0.5 21V3C0.5 1.64807 1.68396 0.5 3.25 0.5H32.5C33.2417 0.5 33.9457 0.77234 34.459 1.24608C34.9708 1.71858 35.25 2.35046 35.25 3V10H33V3V2.5H32.5H3.25H2.75V3V21V21.5H3.25H23.875V23.5H21.125H20.625V24V27V27.5H21.125H23.875V29.5H11.875V27.5H14.625H15.125V27V24Z" stroke="black" stroke-opacity="0.05"/>
</svg>
